<svg width="241" height="115" xmlns="http://www.w3.org/2000/svg" xmlns:xlink="http://www.w3.org/1999/xlink" xml:space="preserve" overflow="hidden"><defs><clipPath id="clip0"><rect x="0" y="0" width="241" height="115"/></clipPath></defs><g clip-path="url(#clip0)"><path d="M0 0 0 15.9336" stroke="#000000" stroke-width="0.530452" stroke-miterlimit="10" fill="none" transform="matrix(1 0 0 -1 31.0461 16.072)"/><path d="M0 0 0 15.9336" stroke="#000000" stroke-width="0.530452" stroke-miterlimit="10" fill="none" transform="matrix(1 0 0 -1 33.701 16.072)"/><path d="M45.6207 8.295C45.8394 8.295 46.0737 8.295 46.0737 8.06072 46.0737 7.88892 45.9175 7.88892 45.6988 7.88892L43.5435 7.88892C43.8558 6.74875 44.6055 5.98344 45.8082 5.98344L46.2299 5.98344C46.4485 5.98344 46.6672 5.98344 46.6672 5.76478 46.6672 5.57735 46.4954 5.57735 46.2611 5.57735L45.7925 5.57735C44.0745 5.57735 42.294 6.90494 42.294 8.93537 42.294 10.3879 43.2936 11.4344 44.6992 11.4344 45.5583 11.4344 46.4173 10.9033 46.4173 10.7628 46.4173 10.7159 46.4017 10.5753 46.2923 10.5753 46.2611 10.5753 46.2299 10.5753 46.1205 10.6534 45.6988 10.9189 45.2147 11.1532 44.7305 11.1532 43.9495 11.1532 43.2936 10.591 43.2936 9.41955 43.2936 8.95099 43.4029 8.45119 43.4341 8.295Z"/><path d="M0 0 0 15.9336" stroke="#000000" stroke-width="0.530452" stroke-miterlimit="10" fill="none" transform="matrix(1 0 0 -1 79.8597 16.072)"/><path d="M93.2617 8.23253 96.9633 8.23253C97.1507 8.23253 97.4006 8.23253 97.4006 7.96701 97.4006 7.70149 97.1507 7.70149 96.9633 7.70149L93.2617 7.70149 93.2617 3.98424C93.2617 3.81244 93.2617 3.54692 92.9961 3.54692 92.7306 3.54692 92.7306 3.81244 92.7306 3.98424L92.7306 7.70149 89.0134 7.70149C88.826 7.70149 88.5761 7.70149 88.5761 7.96701 88.5761 8.23253 88.826 8.23253 89.0134 8.23253L92.7306 8.23253 92.7306 11.9654C92.7306 12.1372 92.7306 12.4027 92.9961 12.4027 93.2617 12.4027 93.2617 12.1372 93.2617 11.9654Z"/><path d="M100.856 11.2782C100.856 10.4035 100.513 9.88811 99.9972 9.88811 99.5599 9.88811 99.2944 10.2161 99.2944 10.591 99.2944 10.9502 99.5599 11.2938 99.9972 11.2938 100.153 11.2938 100.325 11.2469 100.466 11.122 100.497 11.0908 100.513 11.0751 100.528 11.0751 100.544 11.0751 100.56 11.0908 100.56 11.2782 100.56 12.2622 100.091 13.0587 99.6536 13.496 99.513 13.6366 99.513 13.6678 99.513 13.7147 99.513 13.8084 99.5755 13.8553 99.638 13.8553 99.7942 13.8553 100.856 12.84 100.856 11.2782Z"/><path d="M112.801 8.23253C113.035 8.23253 113.269 8.23253 113.269 7.96701 113.269 7.70149 113.035 7.70149 112.801 7.70149L105.616 7.70149C105.397 7.70149 105.163 7.70149 105.163 7.96701 105.163 8.23253 105.397 8.23253 105.616 8.23253Z"/><path d="M0 0 0 15.9336" stroke="#000000" stroke-width="0.530452" stroke-miterlimit="10" fill="none" transform="matrix(1 0 0 -1 126.017 16.072)"/><path d="M136.529 10.591C136.529 10.2005 136.217 9.88811 135.827 9.88811 135.452 9.88811 135.124 10.2005 135.124 10.591 135.124 10.9814 135.452 11.2938 135.827 11.2938 136.217 11.2938 136.529 10.9814 136.529 10.591Z"/><path d="M0 0 0 15.9336" stroke="#000000" stroke-width="0.530452" stroke-miterlimit="10" fill="none" transform="matrix(1 0 0 -1 172.176 16.072)"/><path d="M186.248 7.04551C186.248 5.98344 186.185 4.92137 185.717 3.93739 185.107 2.65665 184.014 2.45361 183.467 2.45361 182.671 2.45361 181.687 2.79722 181.156 4.0311 180.719 4.9526 180.656 5.98344 180.656 7.04551 180.656 8.0451 180.719 9.23213 181.25 10.2473 181.827 11.325 182.796 11.5905 183.452 11.5905 184.17 11.5905 185.17 11.3094 185.763 10.0443 186.185 9.1228 186.248 8.09196 186.248 7.04551ZM183.452 11.2938C182.936 11.2938 182.14 10.9658 181.906 9.68507 181.765 8.88851 181.765 7.67026 181.765 6.88932 181.765 6.03029 181.765 5.15565 181.874 4.43719 182.124 2.8597 183.108 2.75037 183.452 2.75037 183.889 2.75037 184.764 2.98465 185.014 4.29662 185.139 5.04632 185.139 6.04591 185.139 6.88932 185.139 7.88892 185.139 8.77918 184.998 9.63821 184.795 10.8877 184.045 11.2938 183.452 11.2938ZM189.485 11.2782C189.485 10.4348 189.157 9.88811 188.626 9.88811 188.157 9.88811 187.923 10.2473 187.923 10.591 187.923 10.9346 188.157 11.2938 188.626 11.2938 188.844 11.2938 189 11.2157 189.125 11.1064L189.157 11.0751C189.172 11.0751 189.188 11.0908 189.188 11.2782 189.188 12.1372 188.813 12.9338 188.235 13.5585 188.157 13.6366 188.141 13.6522 188.141 13.7147 188.141 13.8084 188.204 13.8553 188.266 13.8553 188.422 13.8553 189.485 12.8088 189.485 11.2782ZM194.373 2.79722C194.373 2.48485 194.373 2.45361 194.061 2.45361 193.249 3.29702 192.077 3.29702 191.656 3.29702L191.656 3.71873C191.921 3.71873 192.702 3.71873 193.389 3.37511L193.389 10.2473C193.389 10.7159 193.342 10.8877 192.155 10.8877L191.734 10.8877 191.734 11.2938C192.202 11.2469 193.342 11.2469 193.873 11.2469 194.404 11.2469 195.56 11.2469 196.029 11.2938L196.029 10.8877 195.607 10.8877C194.404 10.8877 194.373 10.7315 194.373 10.2473ZM199.812 11.2782C199.812 10.4348 199.484 9.88811 198.953 9.88811 198.485 9.88811 198.251 10.2473 198.251 10.591 198.251 10.9346 198.485 11.2938 198.953 11.2938 199.172 11.2938 199.328 11.2157 199.453 11.1064L199.484 11.0751C199.5 11.0751 199.516 11.0908 199.516 11.2782 199.516 12.1372 199.141 12.9338 198.563 13.5585 198.485 13.6366 198.469 13.6522 198.469 13.7147 198.469 13.8084 198.532 13.8553 198.594 13.8553 198.75 13.8553 199.812 12.8088 199.812 11.2782ZM203.342 10.591C203.342 10.2005 203.03 9.88811 202.639 9.88811 202.265 9.88811 201.937 10.2005 201.937 10.591 201.937 10.9814 202.265 11.2938 202.639 11.2938 203.03 11.2938 203.342 10.9814 203.342 10.591ZM207.032 10.591C207.032 10.2005 206.72 9.88811 206.329 9.88811 205.954 9.88811 205.626 10.2005 205.626 10.591 205.626 10.9814 205.954 11.2938 206.329 11.2938 206.72 11.2938 207.032 10.9814 207.032 10.591ZM210.722 10.591C210.722 10.2005 210.41 9.88811 210.019 9.88811 209.644 9.88811 209.316 10.2005 209.316 10.591 209.316 10.9814 209.644 11.2938 210.019 11.2938 210.41 11.2938 210.722 10.9814 210.722 10.591ZM214.564 11.2782C214.564 10.4348 214.236 9.88811 213.705 9.88811 213.237 9.88811 213.002 10.2473 213.002 10.591 213.002 10.9346 213.237 11.2938 213.705 11.2938 213.924 11.2938 214.08 11.2157 214.205 11.1064L214.236 11.0751C214.252 11.0751 214.268 11.0908 214.268 11.2782 214.268 12.1372 213.893 12.9338 213.315 13.5585 213.237 13.6366 213.221 13.6522 213.221 13.7147 213.221 13.8084 213.284 13.8553 213.346 13.8553 213.502 13.8553 214.564 12.8088 214.564 11.2782ZM220.425 7.07675 220.425 7.49845C220.425 10.6066 219.051 11.2157 218.27 11.2157 218.051 11.2157 217.333 11.1845 216.973 10.7315 217.551 10.7315 217.661 10.3567 217.661 10.1224 217.661 9.7163 217.348 9.51326 217.052 9.51326 216.833 9.51326 216.442 9.63821 216.442 10.1536 216.442 11.0439 217.161 11.5905 218.285 11.5905 220.003 11.5905 221.612 9.77878 221.612 6.92056 221.612 3.3595 220.097 2.45361 218.91 2.45361 218.176 2.45361 217.536 2.68789 216.958 3.2814 216.411 3.89053 216.114 4.43719 216.114 5.43678 216.114 7.09236 217.286 8.40434 218.77 8.40434 219.582 8.40434 220.113 7.84206 220.425 7.07675ZM218.785 8.09196C218.567 8.09196 217.957 8.09196 217.551 7.26417 217.301 6.76437 217.301 6.10839 217.301 5.4524 217.301 4.73394 217.301 4.10919 217.583 3.62501 217.942 2.95341 218.442 2.7816 218.91 2.7816 219.519 2.7816 219.957 3.23455 220.191 3.82806 220.347 4.24976 220.394 5.09317 220.394 5.7023 220.394 6.81123 219.941 8.09196 218.785 8.09196Z"/><path d="M0 0 241 0" stroke="#000000" stroke-width="0.530452" stroke-miterlimit="10" fill="none" transform="matrix(1 0 0 -1 -4.86989e-05 16.3386)"/><path d="M0 0 241 0" stroke="#000000" stroke-width="0.530452" stroke-miterlimit="10" fill="none" transform="matrix(1 0 0 -1 -4.86989e-05 18.9935)"/><path d="M13.9655 24.6946C13.9655 24.6322 13.9343 24.5541 13.8406 24.5541 13.6844 24.5541 13.1534 25.0851 12.9347 25.4756 12.638 24.7571 12.1225 24.5384 11.7008 24.5384 10.139 24.5384 8.499 26.5064 8.499 28.4275 8.499 29.7395 9.27994 30.5516 10.2483 30.5516 10.8262 30.5516 11.3416 30.2393 11.8258 29.7551 11.7008 30.2237 11.2635 32.0198 11.2167 32.1448 11.1073 32.504 11.0136 32.5665 10.2639 32.5821 10.0921 32.5821 9.96716 32.5821 9.96716 32.8476 9.96716 32.8476 9.96716 32.9882 10.139 32.9882 10.5607 32.9882 11.0292 32.9413 11.4666 32.9413 11.9039 32.9413 12.3881 32.9882 12.8254 32.9882 12.8879 32.9882 13.0597 32.9882 13.0597 32.7226 13.0597 32.5821 12.9347 32.5821 12.7161 32.5821 12.0913 32.5821 12.0913 32.4884 12.0913 32.3634 12.0913 32.2697 12.1069 32.1916 12.1382 32.0667ZM10.2952 30.2705C9.4986 30.2705 9.43613 29.2397 9.43613 29.021 9.43613 28.3806 9.82659 26.9281 10.0453 26.3815 10.467 25.3975 11.1542 24.8352 11.7008 24.8352 12.5599 24.8352 12.7473 25.9129 12.7473 26.0066 12.7473 26.0847 12.0132 28.9898 11.982 29.0366 11.7789 29.4115 11.0292 30.2705 10.2952 30.2705Z"/><path d="M18.6902 29.4349C18.6902 28.4197 18.5653 27.6856 18.1435 27.0296 17.8468 26.6079 17.2845 26.2331 16.5348 26.2331 14.3794 26.2331 14.3794 28.7633 14.3794 29.4349 14.3794 30.1065 14.3794 32.5899 16.5348 32.5899 18.6902 32.5899 18.6902 30.1065 18.6902 29.4349ZM16.5348 32.3244C16.1131 32.3244 15.5352 32.0745 15.3478 31.3092 15.2229 30.7625 15.2229 29.9972 15.2229 29.31 15.2229 28.6384 15.2229 27.9355 15.3634 27.4201 15.5665 26.686 16.16 26.4986 16.5348 26.4986 17.0346 26.4986 17.5188 26.7953 17.6906 27.342 17.8312 27.8418 17.8468 28.5134 17.8468 29.31 17.8468 29.9972 17.8468 30.7 17.7218 31.2779 17.5344 32.1213 16.9097 32.3244 16.5348 32.3244Z"/><path d="M0 0 0 15.9336" stroke="#000000" stroke-width="0.530452" stroke-miterlimit="10" fill="none" transform="matrix(1 0 0 -1 31.0461 35.1937)"/><path d="M0 0 0 15.9336" stroke="#000000" stroke-width="0.530452" stroke-miterlimit="10" fill="none" transform="matrix(1 0 0 -1 33.701 35.1937)"/><path d="M45.4333 22.2269C45.4333 21.6958 45.7769 20.8368 47.2138 20.7431 47.2919 20.7275 47.3388 20.6806 47.3388 20.6025 47.3388 20.4464 47.2295 20.4464 47.0889 20.4464 45.7613 20.4464 44.543 21.1336 44.543 22.1175L44.543 25.1476C44.543 25.663 44.543 26.0847 44.012 26.522 43.5435 26.9125 43.0437 26.9281 42.7469 26.9437 42.6844 26.9593 42.622 27.0062 42.622 27.0843 42.622 27.2249 42.7 27.2249 42.8406 27.2405 43.7153 27.2873 44.3556 27.7715 44.4962 28.4119 44.543 28.5681 44.543 28.5993 44.543 29.0679L44.543 31.6918C44.543 32.2541 44.543 32.6758 45.1678 33.1912 45.6988 33.5817 46.5735 33.7379 47.0889 33.7379 47.2295 33.7379 47.3388 33.7379 47.3388 33.5817 47.3388 33.4567 47.2607 33.4567 47.1201 33.4411 46.2923 33.3786 45.6364 32.9569 45.4646 32.2853 45.4333 32.1604 45.4333 32.1448 45.4333 31.6606L45.4333 28.8648C45.4333 28.2557 45.324 28.037 44.9023 27.6153 44.6211 27.3342 44.2307 27.1936 43.8558 27.0843 44.9491 26.7875 45.4333 26.1784 45.4333 25.4131Z"/><path d="M54.3047 24.6946C54.3047 24.6322 54.2735 24.5541 54.1798 24.5541 54.0236 24.5541 53.4926 25.0851 53.2739 25.4756 52.9771 24.7571 52.4617 24.5384 52.04 24.5384 50.4782 24.5384 48.8382 26.5064 48.8382 28.4275 48.8382 29.7395 49.6191 30.5516 50.5875 30.5516 51.1654 30.5516 51.6808 30.2393 52.165 29.7551 52.04 30.2237 51.6027 32.0198 51.5558 32.1448 51.4465 32.504 51.3528 32.5665 50.6031 32.5821 50.4313 32.5821 50.3064 32.5821 50.3064 32.8476 50.3064 32.8476 50.3064 32.9882 50.4782 32.9882 50.8999 32.9882 51.3684 32.9413 51.8057 32.9413 52.2431 32.9413 52.7272 32.9882 53.1646 32.9882 53.227 32.9882 53.3988 32.9882 53.3988 32.7226 53.3988 32.5821 53.2739 32.5821 53.0552 32.5821 52.4305 32.5821 52.4305 32.4884 52.4305 32.3634 52.4305 32.2697 52.4461 32.1916 52.4773 32.0667ZM50.6343 30.2705C49.8378 30.2705 49.7753 29.2397 49.7753 29.021 49.7753 28.3806 50.1658 26.9281 50.3844 26.3815 50.8061 25.3975 51.4934 24.8352 52.04 24.8352 52.8991 24.8352 53.0865 25.9129 53.0865 26.0066 53.0865 26.0847 52.3524 28.9898 52.3212 29.0366 52.1181 29.4115 51.3684 30.2705 50.6343 30.2705Z"/><path d="M57.3426 26.4986C57.3426 26.2487 57.327 26.2331 57.0614 26.2331 56.4679 26.811 55.6245 26.8266 55.2497 26.8266L55.2497 27.1546C55.4683 27.1546 56.0775 27.1546 56.5929 26.9047L56.5929 31.6371C56.5929 31.9495 56.5929 32.0745 55.6714 32.0745L55.3121 32.0745 55.3121 32.4025C55.4839 32.3868 56.6241 32.3712 56.9677 32.3712 57.2489 32.3712 58.4203 32.3868 58.6233 32.4025L58.6233 32.0745 58.2797 32.0745C57.3426 32.0745 57.3426 31.9495 57.3426 31.6371Z"/><path d="M63.0668 31.9573C63.0668 32.4884 62.7232 33.3474 61.2707 33.4411 61.2082 33.4567 61.1457 33.5036 61.1457 33.5817 61.1457 33.7379 61.3019 33.7379 61.4112 33.7379 62.7076 33.7379 63.9415 33.0819 63.9571 32.0667L63.9571 29.0366C63.9571 28.5212 63.9571 28.0995 64.4881 27.6622 64.9411 27.2717 65.4565 27.2561 65.7376 27.2405 65.8157 27.2249 65.8626 27.178 65.8626 27.0843 65.8626 26.9593 65.7845 26.9593 65.6439 26.9437 64.7693 26.8969 64.1289 26.4127 63.9883 25.7567 63.9571 25.6161 63.9571 25.5849 63.9571 25.1163L63.9571 22.4924C63.9571 21.9301 63.9571 21.5084 63.3167 20.993 62.7857 20.5869 61.8642 20.4464 61.4112 20.4464 61.3019 20.4464 61.1457 20.4464 61.1457 20.6025 61.1457 20.7275 61.2238 20.7275 61.3644 20.7431 62.1922 20.8056 62.8482 21.2273 63.02 21.8989 63.0668 22.0238 63.0668 22.0395 63.0668 22.5236L63.0668 25.3194C63.0668 25.9285 63.1605 26.1472 63.5979 26.5689 63.8634 26.85 64.2538 26.9906 64.6287 27.0843 63.5354 27.3967 63.0668 28.0058 63.0668 28.7711Z"/><path d="M0 0 0 15.9336" stroke="#000000" stroke-width="0.530452" stroke-miterlimit="10" fill="none" transform="matrix(1 0 0 -1 79.8597 35.1937)"/><path d="M91.5905 22.2269C91.5905 21.6958 91.9341 20.8368 93.371 20.7431 93.4491 20.7275 93.4959 20.6806 93.4959 20.6025 93.4959 20.4464 93.3866 20.4464 93.246 20.4464 91.9185 20.4464 90.7002 21.1336 90.7002 22.1175L90.7002 25.1476C90.7002 25.663 90.7002 26.0847 90.1692 26.522 89.7006 26.9125 89.2008 26.9281 88.9041 26.9437 88.8416 26.9593 88.7791 27.0062 88.7791 27.0843 88.7791 27.2249 88.8572 27.2249 88.9978 27.2405 89.8724 27.2873 90.5128 27.7715 90.6533 28.4119 90.7002 28.5681 90.7002 28.5993 90.7002 29.0679L90.7002 31.6918C90.7002 32.2541 90.7002 32.6758 91.3249 33.1912 91.856 33.5817 92.7306 33.7379 93.246 33.7379 93.3866 33.7379 93.4959 33.7379 93.4959 33.5817 93.4959 33.4567 93.4179 33.4567 93.2773 33.4411 92.4495 33.3786 91.7935 32.9569 91.6217 32.2853 91.5905 32.1604 91.5905 32.1448 91.5905 31.6606L91.5905 28.8648C91.5905 28.2557 91.4811 28.037 91.0594 27.6153 90.7783 27.3342 90.3878 27.1936 90.013 27.0843 91.1063 26.7875 91.5905 26.1784 91.5905 25.4131Z"/><path d="M100.462 24.6946C100.462 24.6322 100.431 24.5541 100.337 24.5541 100.181 24.5541 99.6497 25.0851 99.4311 25.4756 99.1343 24.7571 98.6189 24.5384 98.1972 24.5384 96.6353 24.5384 94.9953 26.5064 94.9953 28.4275 94.9953 29.7395 95.7763 30.5516 96.7446 30.5516 97.3225 30.5516 97.8379 30.2393 98.3221 29.7551 98.1972 30.2237 97.7598 32.0198 97.713 32.1448 97.6037 32.504 97.5099 32.5665 96.7603 32.5821 96.5884 32.5821 96.4635 32.5821 96.4635 32.8476 96.4635 32.8476 96.4635 32.9882 96.6353 32.9882 97.057 32.9882 97.5256 32.9413 97.9629 32.9413 98.4002 32.9413 98.8844 32.9882 99.3217 32.9882 99.3842 32.9882 99.556 32.9882 99.556 32.7226 99.556 32.5821 99.4311 32.5821 99.2124 32.5821 98.5876 32.5821 98.5876 32.4884 98.5876 32.3634 98.5876 32.2697 98.6033 32.1916 98.6345 32.0667ZM96.7915 30.2705C95.9949 30.2705 95.9325 29.2397 95.9325 29.021 95.9325 28.3806 96.3229 26.9281 96.5416 26.3815 96.9633 25.3975 97.6505 24.8352 98.1972 24.8352 99.0562 24.8352 99.2436 25.9129 99.2436 26.0066 99.2436 26.0847 98.5095 28.9898 98.4783 29.0366 98.2753 29.4115 97.5256 30.2705 96.7915 30.2705Z"/><path d="M103.5 26.4986C103.5 26.2487 103.484 26.2331 103.219 26.2331 102.625 26.811 101.782 26.8266 101.407 26.8266L101.407 27.1546C101.625 27.1546 102.235 27.1546 102.75 26.9047L102.75 31.6371C102.75 31.9495 102.75 32.0745 101.829 32.0745L101.469 32.0745 101.469 32.4025C101.641 32.3868 102.781 32.3712 103.125 32.3712 103.406 32.3712 104.577 32.3868 104.78 32.4025L104.78 32.0745 104.437 32.0745C103.5 32.0745 103.5 31.9495 103.5 31.6371Z"/><path d="M109.224 31.9573C109.224 32.4884 108.88 33.3474 107.428 33.4411 107.365 33.4567 107.303 33.5036 107.303 33.5817 107.303 33.7379 107.459 33.7379 107.568 33.7379 108.865 33.7379 110.099 33.0819 110.114 32.0667L110.114 29.0366C110.114 28.5212 110.114 28.0995 110.645 27.6622 111.098 27.2717 111.614 27.2561 111.895 27.2405 111.973 27.2249 112.02 27.178 112.02 27.0843 112.02 26.9593 111.942 26.9593 111.801 26.9437 110.926 26.8969 110.286 26.4127 110.145 25.7567 110.114 25.6161 110.114 25.5849 110.114 25.1163L110.114 22.4924C110.114 21.9301 110.114 21.5084 109.474 20.993 108.943 20.5869 108.021 20.4464 107.568 20.4464 107.459 20.4464 107.303 20.4464 107.303 20.6025 107.303 20.7275 107.381 20.7275 107.522 20.7431 108.349 20.8056 109.005 21.2273 109.177 21.8989 109.224 22.0238 109.224 22.0395 109.224 22.5236L109.224 25.3194C109.224 25.9285 109.318 26.1472 109.755 26.5689 110.021 26.85 110.411 26.9906 110.786 27.0843 109.693 27.3967 109.224 28.0058 109.224 28.7711Z"/><path d="M0 0 0 15.9336" stroke="#000000" stroke-width="0.530452" stroke-miterlimit="10" fill="none" transform="matrix(1 0 0 -1 126.017 35.1937)"/><path d="M139.778 21.5084C139.778 21.4928 139.825 21.3366 139.825 21.3366 139.825 21.321 139.825 21.196 139.669 21.196 139.528 21.196 139.513 21.2429 139.466 21.4616L138.7 24.5228C136.592 24.6009 134.639 26.3658 134.639 28.162 134.639 29.4271 135.561 30.4736 137.185 30.5673 137.076 30.989 136.982 31.4107 136.873 31.8168 136.717 32.4415 136.592 32.9413 136.592 32.9882 136.592 33.1131 136.686 33.1287 136.748 33.1287 136.81 33.1287 136.842 33.1131 136.873 33.0819 136.904 33.0506 136.982 32.7383 137.029 32.5508L137.529 30.5673C139.669 30.5048 141.59 28.7086 141.59 26.9281 141.59 25.8817 140.887 24.6634 139.044 24.5228ZM137.248 30.2705C136.451 30.2393 135.499 29.7707 135.499 28.4431 135.499 26.85 136.639 24.9914 138.622 24.8196ZM138.966 24.8196C139.965 24.8821 140.731 25.4912 140.731 26.647 140.731 28.2245 139.591 30.1143 137.591 30.2705Z"/><path d="M0 0 0 15.9336" stroke="#000000" stroke-width="0.530452" stroke-miterlimit="10" fill="none" transform="matrix(1 0 0 -1 172.176 35.1937)"/><path d="M185.935 21.5084C185.935 21.4928 185.982 21.3366 185.982 21.3366 185.982 21.321 185.982 21.196 185.826 21.196 185.685 21.196 185.67 21.2429 185.623 21.4616L184.857 24.5228C182.749 24.6009 180.797 26.3658 180.797 28.162 180.797 29.4271 181.718 30.4736 183.342 30.5673 183.233 30.989 183.139 31.4107 183.03 31.8168 182.874 32.4415 182.749 32.9413 182.749 32.9882 182.749 33.1131 182.843 33.1287 182.905 33.1287 182.968 33.1287 182.999 33.1131 183.03 33.0819 183.061 33.0506 183.139 32.7383 183.186 32.5508L183.686 30.5673C185.826 30.5048 187.747 28.7086 187.747 26.9281 187.747 25.8817 187.044 24.6634 185.201 24.5228ZM183.405 30.2705C182.608 30.2393 181.656 29.7707 181.656 28.4431 181.656 26.85 182.796 24.9914 184.779 24.8196ZM185.123 24.8196C186.123 24.8821 186.888 25.4912 186.888 26.647 186.888 28.2245 185.748 30.1143 183.749 30.2705ZM13.9655 40.6296C13.9655 40.5671 13.9344 40.489 13.8407 40.489 13.6845 40.489 13.1534 41.0201 12.9348 41.4105 12.638 40.6921 12.1226 40.4734 11.7009 40.4734 10.139 40.4734 8.49908 42.4414 8.49908 44.3625 8.49908 45.6744 9.28 46.4866 10.2484 46.4866 10.8263 46.4866 11.3417 46.1742 11.8259 45.6901 11.701 46.1586 11.2636 47.9548 11.2167 48.0797 11.1074 48.439 11.0137 48.5014 10.264 48.5171 10.0922 48.5171 9.96724 48.5171 9.96724 48.7826 9.96724 48.7826 9.96724 48.9231 10.139 48.9231 10.5607 48.9231 11.0293 48.8763 11.4666 48.8763 11.9039 48.8763 12.3881 48.9231 12.8255 48.9231 12.888 48.9231 13.0597 48.9231 13.0597 48.6576 13.0597 48.5171 12.9348 48.5171 12.7161 48.5171 12.0914 48.5171 12.0914 48.4233 12.0914 48.2984 12.0914 48.2047 12.107 48.1266 12.1383 48.0016ZM10.2952 46.2055C9.49861 46.2055 9.43613 45.1747 9.43613 44.956 9.43613 44.3156 9.8266 42.8631 10.0453 42.3164 10.467 41.3325 11.1542 40.7702 11.7008 40.7702 12.5599 40.7702 12.7473 41.8479 12.7473 41.9416 12.7473 42.0197 12.0132 44.9248 11.982 44.9716 11.7789 45.3465 11.0292 46.2055 10.2952 46.2055Z"/><path d="M17.0034 42.4336C17.0034 42.1837 16.9878 42.1681 16.7222 42.1681 16.1288 42.7459 15.2853 42.7616 14.9105 42.7616L14.9105 43.0896C15.1292 43.0896 15.7383 43.0896 16.2537 42.8397L16.2537 47.5721C16.2537 47.8845 16.2537 48.0094 15.3322 48.0094L14.973 48.0094 14.973 48.3374C15.1448 48.3218 16.2849 48.3062 16.6286 48.3062 16.9097 48.3062 18.0811 48.3218 18.2841 48.3374L18.2841 48.0094 17.9405 48.0094C17.0034 48.0094 17.0034 47.8845 17.0034 47.5721Z"/><path d="M0 0 0 15.9336" stroke="#000000" stroke-width="0.530452" stroke-miterlimit="10" fill="none" transform="matrix(1 0 0 -1 31.0461 51.1272)"/><path d="M0 0 0 15.9336" stroke="#000000" stroke-width="0.530452" stroke-miterlimit="10" fill="none" transform="matrix(1 0 0 -1 33.701 51.1272)"/><path d="M47.4637 37.4434C47.4637 37.4278 47.5106 37.2716 47.5106 37.2716 47.5106 37.256 47.5106 37.131 47.3544 37.131 47.2138 37.131 47.1982 37.1779 47.1514 37.3965L46.3861 40.4578C44.2775 40.5359 42.3252 42.3008 42.3252 44.097 42.3252 45.3621 43.2467 46.4085 44.871 46.5022 44.7617 46.9239 44.668 47.3456 44.5587 47.7517 44.4025 48.3765 44.2775 48.8763 44.2775 48.9231 44.2775 49.0481 44.3712 49.0637 44.4337 49.0637 44.4962 49.0637 44.5274 49.0481 44.5587 49.0169 44.5899 48.9856 44.668 48.6732 44.7149 48.4858L45.2147 46.5022C47.3544 46.4398 49.2755 44.6436 49.2755 42.8631 49.2755 41.8166 48.5727 40.5984 46.7297 40.4578ZM44.9335 46.2055C44.137 46.1742 43.1842 45.7057 43.1842 44.3781 43.1842 42.785 44.3244 40.9264 46.308 40.7546ZM46.6516 40.7546C47.6512 40.817 48.4165 41.4262 48.4165 42.5819 48.4165 44.1594 47.2763 46.0493 45.2771 46.2055Z"/><path d="M0 0 0 15.9336" stroke="#000000" stroke-width="0.530452" stroke-miterlimit="10" fill="none" transform="matrix(1 0 0 -1 79.8597 51.1272)"/><path d="M93.6209 37.4434C93.6209 37.4278 93.6677 37.2716 93.6677 37.2716 93.6677 37.256 93.6677 37.131 93.5116 37.131 93.371 37.131 93.3554 37.1779 93.3085 37.3965L92.5432 40.4578C90.4347 40.5359 88.4823 42.3008 88.4823 44.097 88.4823 45.3621 89.4038 46.4085 91.0282 46.5022 90.9189 46.9239 90.8251 47.3456 90.7158 47.7517 90.5596 48.3765 90.4347 48.8763 90.4347 48.9231 90.4347 49.0481 90.5284 49.0637 90.5909 49.0637 90.6533 49.0637 90.6846 49.0481 90.7158 49.0169 90.7471 48.9856 90.8251 48.6732 90.872 48.4858L91.3718 46.5022C93.5116 46.4398 95.4327 44.6436 95.4327 42.8631 95.4327 41.8166 94.7298 40.5984 92.8868 40.4578ZM91.0907 46.2055C90.2941 46.1742 89.3414 45.7057 89.3414 44.3781 89.3414 42.785 90.4815 40.9264 92.4651 40.7546ZM92.8087 40.7546C93.8083 40.817 94.5736 41.4262 94.5736 42.5819 94.5736 44.1594 93.4335 46.0493 91.4343 46.2055Z"/><path d="M0 0 0 15.9336" stroke="#000000" stroke-width="0.530452" stroke-miterlimit="10" fill="none" transform="matrix(1 0 0 -1 126.017 51.1272)"/><path d="M137.748 38.1619C137.748 37.6308 138.091 36.7718 139.528 36.6781 139.606 36.6625 139.653 36.6156 139.653 36.5375 139.653 36.3813 139.544 36.3813 139.403 36.3813 138.076 36.3813 136.857 37.0686 136.857 38.0525L136.857 41.0826C136.857 41.598 136.857 42.0197 136.326 42.457 135.858 42.8475 135.358 42.8631 135.061 42.8787 134.999 42.8943 134.936 42.9412 134.936 43.0193 134.936 43.1598 135.014 43.1598 135.155 43.1755 136.03 43.2223 136.67 43.7065 136.81 44.3469 136.857 44.503 136.857 44.5343 136.857 45.0028L136.857 47.6268C136.857 48.1891 136.857 48.6108 137.482 49.1262 138.013 49.5167 138.888 49.6728 139.403 49.6728 139.544 49.6728 139.653 49.6728 139.653 49.5167 139.653 49.3917 139.575 49.3917 139.434 49.3761 138.607 49.3136 137.951 48.8919 137.779 48.2203 137.748 48.0953 137.748 48.0797 137.748 47.5956L137.748 44.7998C137.748 44.1907 137.638 43.972 137.217 43.5503 136.935 43.2692 136.545 43.1286 136.17 43.0193 137.263 42.7225 137.748 42.1134 137.748 41.3481Z"/><path d="M146.619 40.6296C146.619 40.5671 146.588 40.489 146.494 40.489 146.338 40.489 145.807 41.0201 145.588 41.4105 145.291 40.6921 144.776 40.4734 144.354 40.4734 142.792 40.4734 141.152 42.4414 141.152 44.3625 141.152 45.6744 141.933 46.4866 142.902 46.4866 143.48 46.4866 143.995 46.1742 144.479 45.6901 144.354 46.1586 143.917 47.9548 143.87 48.0797 143.761 48.439 143.667 48.5014 142.917 48.5171 142.746 48.5171 142.621 48.5171 142.621 48.7826 142.621 48.7826 142.621 48.9231 142.792 48.9231 143.214 48.9231 143.683 48.8763 144.12 48.8763 144.557 48.8763 145.042 48.9231 145.479 48.9231 145.541 48.9231 145.713 48.9231 145.713 48.6576 145.713 48.5171 145.588 48.5171 145.37 48.5171 144.745 48.5171 144.745 48.4233 144.745 48.2984 144.745 48.2047 144.76 48.1266 144.792 48.0016ZM142.949 46.2055C142.152 46.2055 142.09 45.1747 142.09 44.956 142.09 44.3156 142.48 42.8631 142.699 42.3164 143.12 41.3325 143.808 40.7702 144.354 40.7702 145.213 40.7702 145.401 41.8479 145.401 41.9416 145.401 42.0197 144.667 44.9248 144.635 44.9716 144.432 45.3465 143.683 46.2055 142.949 46.2055Z"/><path d="M151.238 46.6506 150.926 46.6506C150.895 46.8537 150.817 47.4003 150.692 47.494 150.614 47.5409 149.895 47.5409 149.77 47.5409L148.052 47.5409C149.036 46.6819 149.364 46.4163 149.911 45.979 150.598 45.4324 151.238 44.8545 151.238 43.9798 151.238 42.8553 150.254 42.1681 149.067 42.1681 147.911 42.1681 147.131 42.9802 147.131 43.8236 147.131 44.3078 147.537 44.3547 147.63 44.3547 147.849 44.3547 148.13 44.1985 148.13 43.8549 148.13 43.6831 148.052 43.3707 147.568 43.3707 147.865 42.6991 148.489 42.496 148.927 42.496 149.864 42.496 150.348 43.2301 150.348 43.9798 150.348 44.792 149.77 45.4324 149.473 45.7604L147.224 47.9782C147.131 48.0563 147.131 48.0719 147.131 48.3374L150.973 48.3374Z"/><path d="M155.381 47.8923C155.381 48.4233 155.038 49.2824 153.585 49.3761 153.523 49.3917 153.46 49.4386 153.46 49.5167 153.46 49.6728 153.616 49.6728 153.726 49.6728 155.022 49.6728 156.256 49.0168 156.271 48.0016L156.271 44.9716C156.271 44.4562 156.271 44.0345 156.802 43.5972 157.255 43.2067 157.771 43.1911 158.052 43.1755 158.13 43.1598 158.177 43.113 158.177 43.0193 158.177 42.8943 158.099 42.8943 157.958 42.8787 157.084 42.8318 156.443 42.3477 156.303 41.6917 156.271 41.5511 156.271 41.5199 156.271 41.0513L156.271 38.4274C156.271 37.8651 156.271 37.4434 155.631 36.928 155.1 36.5219 154.178 36.3813 153.726 36.3813 153.616 36.3813 153.46 36.3813 153.46 36.5375 153.46 36.6625 153.538 36.6625 153.679 36.6781 154.506 36.7406 155.162 37.1623 155.334 37.8339 155.381 37.9588 155.381 37.9744 155.381 38.4586L155.381 41.2544C155.381 41.8635 155.475 42.0821 155.912 42.5039 156.178 42.785 156.568 42.9256 156.943 43.0193 155.85 43.3316 155.381 43.9408 155.381 44.7061Z"/><path d="M0 0 0 15.9336" stroke="#000000" stroke-width="0.530452" stroke-miterlimit="10" fill="none" transform="matrix(1 0 0 -1 172.176 51.1272)"/><path d="M183.905 38.1619C183.905 37.6308 184.248 36.7718 185.685 36.6781 185.763 36.6625 185.81 36.6156 185.81 36.5375 185.81 36.3813 185.701 36.3813 185.56 36.3813 184.233 36.3813 183.014 37.0686 183.014 38.0525L183.014 41.0826C183.014 41.598 183.014 42.0197 182.483 42.457 182.015 42.8475 181.515 42.8631 181.218 42.8787 181.156 42.8943 181.093 42.9412 181.093 43.0193 181.093 43.1598 181.171 43.1598 181.312 43.1755 182.187 43.2223 182.827 43.7065 182.968 44.3469 183.014 44.503 183.014 44.5343 183.014 45.0028L183.014 47.6268C183.014 48.1891 183.014 48.6108 183.639 49.1262 184.17 49.5167 185.045 49.6728 185.56 49.6728 185.701 49.6728 185.81 49.6728 185.81 49.5167 185.81 49.3917 185.732 49.3917 185.592 49.3761 184.764 49.3136 184.108 48.8919 183.936 48.2203 183.905 48.0953 183.905 48.0797 183.905 47.5956L183.905 44.7998C183.905 44.1907 183.795 43.972 183.374 43.5503 183.093 43.2692 182.702 43.1286 182.327 43.0193 183.421 42.7225 183.905 42.1134 183.905 41.3481Z"/><path d="M192.78 40.6296C192.78 40.5671 192.749 40.489 192.655 40.489 192.499 40.489 191.968 41.0201 191.749 41.4105 191.452 40.6921 190.937 40.4734 190.515 40.4734 188.954 40.4734 187.314 42.4414 187.314 44.3625 187.314 45.6744 188.094 46.4866 189.063 46.4866 189.641 46.4866 190.156 46.1742 190.64 45.6901 190.515 46.1586 190.078 47.9548 190.031 48.0797 189.922 48.439 189.828 48.5014 189.078 48.5171 188.907 48.5171 188.782 48.5171 188.782 48.7826 188.782 48.7826 188.782 48.9231 188.954 48.9231 189.375 48.9231 189.844 48.8763 190.281 48.8763 190.718 48.8763 191.203 48.9231 191.64 48.9231 191.702 48.9231 191.874 48.9231 191.874 48.6576 191.874 48.5171 191.749 48.5171 191.531 48.5171 190.906 48.5171 190.906 48.4233 190.906 48.2984 190.906 48.2047 190.921 48.1266 190.953 48.0016ZM189.11 46.2055C188.313 46.2055 188.251 45.1747 188.251 44.956 188.251 44.3156 188.641 42.8631 188.86 42.3164 189.281 41.3325 189.969 40.7702 190.515 40.7702 191.374 40.7702 191.562 41.8479 191.562 41.9416 191.562 42.0197 190.828 44.9248 190.797 44.9716 190.593 45.3465 189.844 46.2055 189.11 46.2055Z"/><path d="M195.818 42.4336C195.818 42.1837 195.802 42.1681 195.537 42.1681 194.943 42.7459 194.1 42.7616 193.725 42.7616L193.725 43.0896C193.944 43.0896 194.553 43.0896 195.068 42.8397L195.068 47.5721C195.068 47.8845 195.068 48.0094 194.147 48.0094L193.787 48.0094 193.787 48.3374C193.959 48.3218 195.099 48.3062 195.443 48.3062 195.724 48.3062 196.896 48.3218 197.099 48.3374L197.099 48.0094 196.755 48.0094C195.818 48.0094 195.818 47.8845 195.818 47.5721Z"/><path d="M201.366 46.3304C201.366 45.4558 201.023 44.9404 200.507 44.9404 200.07 44.9404 199.805 45.2684 199.805 45.6432 199.805 46.0024 200.07 46.3461 200.507 46.3461 200.664 46.3461 200.835 46.2992 200.976 46.1742 201.007 46.143 201.023 46.1274 201.038 46.1274 201.054 46.1274 201.07 46.143 201.07 46.3304 201.07 47.3144 200.601 48.111 200.164 48.5483 200.023 48.6889 200.023 48.7201 200.023 48.767 200.023 48.8607 200.086 48.9075 200.148 48.9075 200.304 48.9075 201.366 47.8923 201.366 46.3304ZM210.57 40.6296C210.57 40.5671 210.539 40.489 210.445 40.489 210.289 40.489 209.758 41.0201 209.539 41.4105 209.242 40.6921 208.727 40.4734 208.305 40.4734 206.743 40.4734 205.103 42.4414 205.103 44.3625 205.103 45.6744 205.884 46.4866 206.853 46.4866 207.43 46.4866 207.946 46.1742 208.43 45.6901 208.305 46.1586 207.868 47.9548 207.821 48.0797 207.712 48.439 207.618 48.5014 206.868 48.5171 206.696 48.5171 206.571 48.5171 206.571 48.7826 206.571 48.7826 206.571 48.9231 206.743 48.9231 207.165 48.9231 207.633 48.8763 208.071 48.8763 208.508 48.8763 208.992 48.9231 209.43 48.9231 209.492 48.9231 209.664 48.9231 209.664 48.6576 209.664 48.5171 209.539 48.5171 209.32 48.5171 208.696 48.5171 208.696 48.4233 208.696 48.2984 208.696 48.2047 208.711 48.1266 208.742 48.0016ZM206.899 46.2055C206.103 46.2055 206.04 45.1747 206.04 44.956 206.04 44.3156 206.431 42.8631 206.649 42.3164 207.071 41.3325 207.758 40.7702 208.305 40.7702 209.164 40.7702 209.352 41.8479 209.352 41.9416 209.352 42.0197 208.617 44.9248 208.586 44.9716 208.383 45.3465 207.633 46.2055 206.899 46.2055Z"/><path d="M215.415 46.8068 215.415 46.4788 214.385 46.4788 214.385 42.3399C214.385 42.1368 214.385 42.0743 214.182 42.0743 214.057 42.0743 214.025 42.0743 213.932 42.1993L210.855 46.4788 210.855 46.8068 213.588 46.8068 213.588 47.5721C213.588 47.8845 213.588 48.0094 212.838 48.0094L212.588 48.0094 212.588 48.3374C213.057 48.3218 213.651 48.3062 213.979 48.3062 214.322 48.3062 214.916 48.3218 215.384 48.3374L215.384 48.0094 215.134 48.0094C214.385 48.0094 214.385 47.8845 214.385 47.5721L214.385 46.8068ZM213.651 43.0739 213.651 46.4788 211.198 46.4788Z"/><path d="M219.324 47.8923C219.324 48.4233 218.98 49.2824 217.528 49.3761 217.465 49.3917 217.403 49.4386 217.403 49.5167 217.403 49.6728 217.559 49.6728 217.668 49.6728 218.965 49.6728 220.199 49.0168 220.214 48.0016L220.214 44.9716C220.214 44.4562 220.214 44.0345 220.745 43.5972 221.198 43.2067 221.714 43.1911 221.995 43.1755 222.073 43.1598 222.12 43.113 222.12 43.0193 222.12 42.8943 222.042 42.8943 221.901 42.8787 221.026 42.8318 220.386 42.3477 220.246 41.6917 220.214 41.5511 220.214 41.5199 220.214 41.0513L220.214 38.4274C220.214 37.8651 220.214 37.4434 219.574 36.928 219.043 36.5219 218.121 36.3813 217.668 36.3813 217.559 36.3813 217.403 36.3813 217.403 36.5375 217.403 36.6625 217.481 36.6625 217.622 36.6781 218.449 36.7406 219.105 37.1623 219.277 37.8339 219.324 37.9588 219.324 37.9744 219.324 38.4586L219.324 41.2544C219.324 41.8635 219.418 42.0821 219.855 42.5039 220.121 42.785 220.511 42.9256 220.886 43.0193 219.793 43.3316 219.324 43.9408 219.324 44.7061Z"/><path d="M13.9655 56.5646C13.9655 56.5021 13.9344 56.424 13.8407 56.424 13.6845 56.424 13.1534 56.9551 12.9348 57.3455 12.638 56.6271 12.1226 56.4084 11.7009 56.4084 10.139 56.4084 8.49908 58.3764 8.49908 60.2975 8.49908 61.6094 9.28 62.4216 10.2484 62.4216 10.8263 62.4216 11.3417 62.1092 11.8259 61.625 11.701 62.0936 11.2636 63.8898 11.2167 64.0147 11.1074 64.3739 11.0137 64.4364 10.264 64.452 10.0922 64.452 9.96724 64.452 9.96724 64.7175 9.96724 64.7175 9.96724 64.8581 10.139 64.8581 10.5607 64.8581 11.0293 64.8112 11.4666 64.8112 11.9039 64.8112 12.3881 64.8581 12.8255 64.8581 12.888 64.8581 13.0597 64.8581 13.0597 64.5926 13.0597 64.452 12.9348 64.452 12.7161 64.452 12.0914 64.452 12.0914 64.3583 12.0914 64.2334 12.0914 64.1397 12.107 64.0616 12.1383 63.9366ZM10.2952 62.1405C9.49861 62.1405 9.43613 61.1096 9.43613 60.891 9.43613 60.2506 9.8266 58.7981 10.0453 58.2514 10.467 57.2674 11.1542 56.7052 11.7008 56.7052 12.5599 56.7052 12.7473 57.7828 12.7473 57.8766 12.7473 57.9547 12.0132 60.8597 11.982 60.9066 11.7789 61.2814 11.0292 62.1405 10.2952 62.1405Z"/><path d="M18.5809 62.5856 18.2685 62.5856C18.2373 62.7886 18.1592 63.3353 18.0342 63.429 17.9561 63.4759 17.2377 63.4759 17.1127 63.4759L15.3947 63.4759C16.3786 62.6168 16.7066 62.3513 17.2533 61.914 17.9405 61.3673 18.5809 60.7895 18.5809 59.9148 18.5809 58.7903 17.5969 58.103 16.4099 58.103 15.2541 58.103 14.4732 58.9152 14.4732 59.7586 14.4732 60.2428 14.8793 60.2896 14.973 60.2896 15.1916 60.2896 15.4727 60.1335 15.4727 59.7899 15.4727 59.618 15.3947 59.3057 14.9105 59.3057 15.2072 58.6341 15.832 58.431 16.2693 58.431 17.2064 58.431 17.6906 59.1651 17.6906 59.9148 17.6906 60.727 17.1127 61.3673 16.816 61.6953L14.5669 63.9132C14.4732 63.9913 14.4732 64.0069 14.4732 64.2724L18.3154 64.2724Z"/><path d="M0 0 0 15.9336" stroke="#000000" stroke-width="0.530452" stroke-miterlimit="10" fill="none" transform="matrix(1 0 0 -1 31.0461 67.0608)"/><path d="M0 0 0 15.9336" stroke="#000000" stroke-width="0.530452" stroke-miterlimit="10" fill="none" transform="matrix(1 0 0 -1 33.701 67.0608)"/><path d="M47.4637 53.3784C47.4637 53.3628 47.5106 53.2066 47.5106 53.2066 47.5106 53.1909 47.5106 53.066 47.3544 53.066 47.2138 53.066 47.1982 53.1129 47.1514 53.3315L46.3861 56.3928C44.2775 56.4709 42.3252 58.2358 42.3252 60.0319 42.3252 61.2971 43.2467 62.3435 44.871 62.4372 44.7617 62.8589 44.668 63.2806 44.5587 63.6867 44.4025 64.3115 44.2775 64.8113 44.2775 64.8581 44.2775 64.9831 44.3712 64.9987 44.4337 64.9987 44.4962 64.9987 44.5274 64.9831 44.5587 64.9518 44.5899 64.9206 44.668 64.6082 44.7149 64.4208L45.2147 62.4372C47.3544 62.3747 49.2755 60.5786 49.2755 58.7981 49.2755 57.7516 48.5727 56.5333 46.7297 56.3928ZM44.9335 62.1405C44.137 62.1092 43.1842 61.6407 43.1842 60.3131 43.1842 58.72 44.3244 56.8613 46.308 56.6895ZM46.6516 56.6895C47.6512 56.752 48.4165 57.3611 48.4165 58.5169 48.4165 60.0944 47.2763 61.9843 45.2771 62.1405Z"/><path d="M0 0 0 15.9336" stroke="#000000" stroke-width="0.530452" stroke-miterlimit="10" fill="none" transform="matrix(1 0 0 -1 79.8597 67.0608)"/><path d="M93.6209 53.3784C93.6209 53.3628 93.6677 53.2066 93.6677 53.2066 93.6677 53.1909 93.6677 53.066 93.5116 53.066 93.371 53.066 93.3554 53.1129 93.3085 53.3315L92.5432 56.3928C90.4347 56.4709 88.4823 58.2358 88.4823 60.0319 88.4823 61.2971 89.4038 62.3435 91.0282 62.4372 90.9189 62.8589 90.8251 63.2806 90.7158 63.6867 90.5596 64.3115 90.4347 64.8113 90.4347 64.8581 90.4347 64.9831 90.5284 64.9987 90.5909 64.9987 90.6533 64.9987 90.6846 64.9831 90.7158 64.9518 90.7471 64.9206 90.8251 64.6082 90.872 64.4208L91.3718 62.4372C93.5116 62.3747 95.4327 60.5786 95.4327 58.7981 95.4327 57.7516 94.7298 56.5333 92.8868 56.3928ZM91.0907 62.1405C90.2941 62.1092 89.3414 61.6407 89.3414 60.3131 89.3414 58.72 90.4815 56.8613 92.4651 56.6895ZM92.8087 56.6895C93.8083 56.752 94.5736 57.3611 94.5736 58.5169 94.5736 60.0944 93.4335 61.9843 91.4343 62.1405Z"/><path d="M0 0 0 15.9336" stroke="#000000" stroke-width="0.530452" stroke-miterlimit="10" fill="none" transform="matrix(1 0 0 -1 126.017 67.0608)"/><path d="M139.778 53.3784C139.778 53.3628 139.825 53.2066 139.825 53.2066 139.825 53.1909 139.825 53.066 139.669 53.066 139.528 53.066 139.513 53.1129 139.466 53.3315L138.7 56.3928C136.592 56.4709 134.639 58.2358 134.639 60.0319 134.639 61.2971 135.561 62.3435 137.185 62.4372 137.076 62.8589 136.982 63.2806 136.873 63.6867 136.717 64.3115 136.592 64.8113 136.592 64.8581 136.592 64.9831 136.686 64.9987 136.748 64.9987 136.81 64.9987 136.842 64.9831 136.873 64.9518 136.904 64.9206 136.982 64.6082 137.029 64.4208L137.529 62.4372C139.669 62.3747 141.59 60.5786 141.59 58.7981 141.59 57.7516 140.887 56.5333 139.044 56.3928ZM137.248 62.1405C136.451 62.1092 135.499 61.6407 135.499 60.3131 135.499 58.72 136.639 56.8613 138.622 56.6895ZM138.966 56.6895C139.965 56.752 140.731 57.3611 140.731 58.5169 140.731 60.0944 139.591 61.9843 137.591 62.1405Z"/><path d="M0 0 0 15.9336" stroke="#000000" stroke-width="0.530452" stroke-miterlimit="10" fill="none" transform="matrix(1 0 0 -1 172.176 67.0608)"/><path d="M183.905 54.0968C183.905 53.5658 184.248 52.7068 185.685 52.6131 185.763 52.5974 185.81 52.5506 185.81 52.4725 185.81 52.3163 185.701 52.3163 185.56 52.3163 184.233 52.3163 183.014 53.0035 183.014 53.9875L183.014 57.0175C183.014 57.5329 183.014 57.9546 182.483 58.392 182.015 58.7824 181.515 58.7981 181.218 58.8137 181.156 58.8293 181.093 58.8762 181.093 58.9542 181.093 59.0948 181.171 59.0948 181.312 59.1104 182.187 59.1573 182.827 59.6415 182.968 60.2818 183.014 60.438 183.014 60.4693 183.014 60.9378L183.014 63.5618C183.014 64.124 183.014 64.5457 183.639 65.0612 184.17 65.4516 185.045 65.6078 185.56 65.6078 185.701 65.6078 185.81 65.6078 185.81 65.4516 185.81 65.3267 185.732 65.3267 185.592 65.3111 184.764 65.2486 184.108 64.8269 183.936 64.1553 183.905 64.0303 183.905 64.0147 183.905 63.5305L183.905 60.7348C183.905 60.1256 183.795 59.907 183.374 59.4853 183.093 59.2041 182.702 59.0636 182.327 58.9542 183.421 58.6575 183.905 58.0484 183.905 57.283Z"/><path d="M192.78 56.5646C192.78 56.5021 192.749 56.424 192.655 56.424 192.499 56.424 191.968 56.9551 191.749 57.3455 191.452 56.6271 190.937 56.4084 190.515 56.4084 188.954 56.4084 187.314 58.3764 187.314 60.2975 187.314 61.6094 188.094 62.4216 189.063 62.4216 189.641 62.4216 190.156 62.1092 190.64 61.625 190.515 62.0936 190.078 63.8898 190.031 64.0147 189.922 64.3739 189.828 64.4364 189.078 64.452 188.907 64.452 188.782 64.452 188.782 64.7175 188.782 64.7175 188.782 64.8581 188.954 64.8581 189.375 64.8581 189.844 64.8113 190.281 64.8113 190.718 64.8113 191.203 64.8581 191.64 64.8581 191.702 64.8581 191.874 64.8581 191.874 64.5926 191.874 64.452 191.749 64.452 191.531 64.452 190.906 64.452 190.906 64.3583 190.906 64.2334 190.906 64.1397 190.921 64.0616 190.953 63.9366ZM189.11 62.1405C188.313 62.1405 188.251 61.1096 188.251 60.891 188.251 60.2506 188.641 58.7981 188.86 58.2514 189.281 57.2674 189.969 56.7052 190.515 56.7052 191.374 56.7052 191.562 57.7828 191.562 57.8766 191.562 57.9546 190.828 60.8597 190.797 60.9066 190.593 61.2814 189.844 62.1405 189.11 62.1405Z"/><path d="M195.24 61.1643C195.974 61.1643 196.49 61.6641 196.49 62.6637 196.49 63.8195 195.818 64.1631 195.287 64.1631 194.912 64.1631 194.1 64.0537 193.709 63.5071 194.147 63.4915 194.24 63.1791 194.24 62.9917 194.24 62.6949 194.022 62.4763 193.725 62.4763 193.475 62.4763 193.21 62.6324 193.21 63.0229 193.21 63.8976 194.178 64.4598 195.303 64.4598 196.599 64.4598 197.489 63.6008 197.489 62.6637 197.489 61.9452 196.896 61.2111 195.865 61.0081 196.849 60.6489 197.192 59.946 197.192 59.3838 197.192 58.6497 196.349 58.103 195.318 58.103 194.287 58.103 193.506 58.6028 193.506 59.3525 193.506 59.6649 193.709 59.8367 193.991 59.8367 194.272 59.8367 194.459 59.618 194.459 59.3681 194.459 59.1026 194.272 58.8996 193.991 58.884 194.303 58.4779 194.943 58.3685 195.287 58.3685 195.709 58.3685 196.302 58.5716 196.302 59.3838 196.302 59.7742 196.162 60.1959 195.927 60.4927 195.615 60.8363 195.365 60.8675 194.896 60.8832 194.662 60.9144 194.647 60.9144 194.6 60.9144 194.584 60.9144 194.506 60.93 194.506 61.0393 194.506 61.1643 194.584 61.1643 194.74 61.1643Z"/><path d="M201.538 63.8273C201.538 64.3583 201.195 65.2173 199.742 65.3111 199.68 65.3267 199.617 65.3735 199.617 65.4516 199.617 65.6078 199.773 65.6078 199.883 65.6078 201.179 65.6078 202.413 64.9518 202.429 63.9366L202.429 60.9066C202.429 60.3912 202.429 59.9695 202.96 59.5321 203.413 59.1417 203.928 59.126 204.209 59.1104 204.287 59.0948 204.334 59.048 204.334 58.9542 204.334 58.8293 204.256 58.8293 204.115 58.8137 203.241 58.7668 202.6 58.2826 202.46 57.6267 202.429 57.4861 202.429 57.4548 202.429 56.9863L202.429 54.3623C202.429 53.8001 202.429 53.3784 201.788 52.863 201.257 52.4569 200.336 52.3163 199.883 52.3163 199.773 52.3163 199.617 52.3163 199.617 52.4725 199.617 52.5974 199.695 52.5974 199.836 52.6131 200.664 52.6755 201.32 53.0972 201.491 53.7688 201.538 53.8938 201.538 53.9094 201.538 54.3936L201.538 57.1893C201.538 57.7985 201.632 58.0171 202.069 58.4388 202.335 58.72 202.725 58.8605 203.1 58.9542 202.007 59.2666 201.538 59.8757 201.538 60.6411Z"/><path d="M13.9655 72.4996C13.9655 72.4371 13.9344 72.359 13.8407 72.359 13.6845 72.359 13.1534 72.89 12.9348 73.2805 12.638 72.562 12.1226 72.3434 11.7009 72.3434 10.139 72.3434 8.49908 74.3113 8.49908 76.2324 8.49908 77.5444 9.28 78.3566 10.2484 78.3566 10.8263 78.3566 11.3417 78.0442 11.8259 77.56 11.701 78.0286 11.2636 79.8247 11.2167 79.9497 11.1074 80.3089 11.0137 80.3714 10.264 80.387 10.0922 80.387 9.96724 80.387 9.96724 80.6525 9.96724 80.6525 9.96724 80.7931 10.139 80.7931 10.5607 80.7931 11.0293 80.7462 11.4666 80.7462 11.9039 80.7462 12.3881 80.7931 12.8255 80.7931 12.888 80.7931 13.0597 80.7931 13.0597 80.5276 13.0597 80.387 12.9348 80.387 12.7161 80.387 12.0914 80.387 12.0914 80.2933 12.0914 80.1683 12.0914 80.0746 12.107 79.9965 12.1383 79.8716ZM10.2952 78.0754C9.49861 78.0754 9.43613 77.0446 9.43613 76.8259 9.43613 76.1856 9.8266 74.733 10.0453 74.1864 10.467 73.2024 11.1542 72.6401 11.7008 72.6401 12.5599 72.6401 12.7473 73.7178 12.7473 73.8115 12.7473 73.8896 12.0132 76.7947 11.982 76.8416 11.7789 77.2164 11.0292 78.0754 10.2952 78.0754Z"/><path d="M16.4255 77.0993C17.1596 77.0993 17.675 77.5991 17.675 78.5987 17.675 79.7544 17.0034 80.0981 16.4724 80.0981 16.0975 80.0981 15.2853 79.9887 14.8949 79.4421 15.3322 79.4265 15.4259 79.1141 15.4259 78.9267 15.4259 78.6299 15.2072 78.4112 14.9105 78.4112 14.6606 78.4112 14.3951 78.5674 14.3951 78.9579 14.3951 79.8325 15.3634 80.3948 16.488 80.3948 17.7843 80.3948 18.6746 79.5358 18.6746 78.5987 18.6746 77.8802 18.0811 77.1461 17.0502 76.9431 18.0342 76.5838 18.3778 75.881 18.3778 75.3187 18.3778 74.5847 17.5344 74.038 16.5036 74.038 15.4727 74.038 14.6918 74.5378 14.6918 75.2875 14.6918 75.5999 14.8949 75.7717 15.176 75.7717 15.4571 75.7717 15.6446 75.553 15.6446 75.3031 15.6446 75.0376 15.4571 74.8346 15.176 74.8189 15.4884 74.4128 16.1288 74.3035 16.4724 74.3035 16.8941 74.3035 17.4876 74.5066 17.4876 75.3187 17.4876 75.7092 17.347 76.1309 17.1127 76.4277 16.8003 76.7713 16.5504 76.8025 16.0819 76.8181 15.8476 76.8494 15.832 76.8494 15.7851 76.8494 15.7695 76.8494 15.6914 76.865 15.6914 76.9743 15.6914 77.0993 15.7695 77.0993 15.9257 77.0993Z"/><path d="M0 0 0 15.9336" stroke="#000000" stroke-width="0.530452" stroke-miterlimit="10" fill="none" transform="matrix(1 0 0 -1 31.0461 82.9944)"/><path d="M0 0 0 15.9336" stroke="#000000" stroke-width="0.530452" stroke-miterlimit="10" fill="none" transform="matrix(1 0 0 -1 33.701 82.9944)"/><path d="M45.4333 70.0318C45.4333 69.5008 45.7769 68.6417 47.2138 68.548 47.2919 68.5324 47.3388 68.4856 47.3388 68.4075 47.3388 68.2513 47.2295 68.2513 47.0889 68.2513 45.7613 68.2513 44.543 68.9385 44.543 69.9225L44.543 72.9525C44.543 73.4679 44.543 73.8896 44.012 74.327 43.5435 74.7174 43.0437 74.733 42.7469 74.7487 42.6844 74.7643 42.622 74.8111 42.622 74.8892 42.622 75.0298 42.7 75.0298 42.8406 75.0454 43.7153 75.0923 44.3556 75.5764 44.4962 76.2168 44.543 76.373 44.543 76.4042 44.543 76.8728L44.543 79.4967C44.543 80.059 44.543 80.4807 45.1678 80.9961 45.6988 81.3866 46.5735 81.5428 47.0889 81.5428 47.2295 81.5428 47.3388 81.5428 47.3388 81.3866 47.3388 81.2617 47.2607 81.2617 47.1201 81.246 46.2923 81.1836 45.6364 80.7619 45.4646 80.0903 45.4333 79.9653 45.4333 79.9497 45.4333 79.4655L45.4333 76.6698C45.4333 76.0606 45.324 75.842 44.9023 75.4203 44.6211 75.1391 44.2307 74.9986 43.8558 74.8892 44.9491 74.5925 45.4333 73.9833 45.4333 73.218Z"/><path d="M54.3047 72.4996C54.3047 72.4371 54.2735 72.359 54.1798 72.359 54.0236 72.359 53.4926 72.89 53.2739 73.2805 52.9771 72.562 52.4617 72.3434 52.04 72.3434 50.4782 72.3434 48.8382 74.3113 48.8382 76.2324 48.8382 77.5444 49.6191 78.3566 50.5875 78.3566 51.1654 78.3566 51.6808 78.0442 52.165 77.56 52.04 78.0286 51.6027 79.8247 51.5558 79.9497 51.4465 80.3089 51.3528 80.3714 50.6031 80.387 50.4313 80.387 50.3064 80.387 50.3064 80.6525 50.3064 80.6525 50.3064 80.7931 50.4782 80.7931 50.8999 80.7931 51.3684 80.7462 51.8057 80.7462 52.2431 80.7462 52.7272 80.7931 53.1646 80.7931 53.227 80.7931 53.3988 80.7931 53.3988 80.5276 53.3988 80.387 53.2739 80.387 53.0552 80.387 52.4305 80.387 52.4305 80.2933 52.4305 80.1684 52.4305 80.0746 52.4461 79.9965 52.4773 79.8716ZM50.6343 78.0754C49.8378 78.0754 49.7753 77.0446 49.7753 76.8259 49.7753 76.1856 50.1658 74.733 50.3844 74.1864 50.8061 73.2024 51.4934 72.6401 52.04 72.6401 52.8991 72.6401 53.0865 73.7178 53.0865 73.8115 53.0865 73.8896 52.3524 76.7947 52.3212 76.8416 52.1181 77.2164 51.3684 78.0754 50.6343 78.0754Z"/><path d="M55.6714 75.022C56.1555 75.1469 56.4211 75.1469 56.5773 75.1469 57.7955 75.1469 58.5296 74.3035 58.5296 74.163 58.5296 74.0692 58.4671 74.038 58.4203 74.038 58.4046 74.038 58.3734 74.038 58.3422 74.0692 58.1235 74.1473 57.6237 74.3348 56.9365 74.3348 56.671 74.3348 56.1868 74.3191 55.5777 74.0849 55.484 74.038 55.4683 74.038 55.4683 74.038 55.3434 74.038 55.3434 74.1317 55.3434 74.2879L55.3434 77.0368C55.3434 77.193 55.3434 77.3023 55.484 77.3023 55.5777 77.3023 55.5777 77.2867 55.6714 77.1618 56.0775 76.6619 56.6397 76.5839 56.9677 76.5839 57.53 76.5839 57.7799 77.0368 57.8268 77.0993 57.9829 77.4116 58.0454 77.7709 58.0454 78.3019 58.0454 78.583 58.0454 79.1297 57.7643 79.5358 57.53 79.8794 57.1395 80.0981 56.671 80.0981 56.0775 80.0981 55.4527 79.7544 55.2184 79.1453 55.5777 79.1766 55.7495 78.9423 55.7495 78.6924 55.7495 78.2863 55.4059 78.2238 55.2809 78.2238 55.2653 78.2238 54.8124 78.2238 54.8124 78.7236 54.8124 79.5514 55.5777 80.3948 56.7022 80.3948 57.8892 80.3948 58.9201 79.5046 58.9201 78.3332 58.9201 77.2867 58.1235 76.3183 56.9833 76.3183 56.5616 76.3183 56.0775 76.4277 55.6714 76.7713Z"/><path d="M63.0668 79.7623C63.0668 80.2933 62.7232 81.1523 61.2707 81.246 61.2082 81.2617 61.1457 81.3085 61.1457 81.3866 61.1457 81.5428 61.3019 81.5428 61.4112 81.5428 62.7076 81.5428 63.9415 80.8868 63.9571 79.8716L63.9571 76.8416C63.9571 76.3261 63.9571 75.9044 64.4881 75.4671 64.9411 75.0767 65.4565 75.061 65.7376 75.0454 65.8157 75.0298 65.8626 74.9829 65.8626 74.8892 65.8626 74.7643 65.7845 74.7643 65.6439 74.7487 64.7693 74.7018 64.1289 74.2176 63.9883 73.5616 63.9571 73.4211 63.9571 73.3898 63.9571 72.9213L63.9571 70.2973C63.9571 69.7351 63.9571 69.3134 63.3167 68.7979 62.7857 68.3919 61.8642 68.2513 61.4112 68.2513 61.3019 68.2513 61.1457 68.2513 61.1457 68.4075 61.1457 68.5324 61.2238 68.5324 61.3644 68.548 62.1922 68.6105 62.8482 69.0322 63.02 69.7038 63.0668 69.8288 63.0668 69.8444 63.0668 70.3286L63.0668 73.1243C63.0668 73.7334 63.1605 73.9521 63.5979 74.3738 63.8634 74.6549 64.2538 74.7955 64.6287 74.8892 63.5354 75.2016 63.0668 75.8107 63.0668 76.576Z"/><path d="M0 0 0 15.9336" stroke="#000000" stroke-width="0.530452" stroke-miterlimit="10" fill="none" transform="matrix(1 0 0 -1 79.8597 82.9944)"/><path d="M93.6209 69.3134C93.6209 69.2977 93.6677 69.1415 93.6677 69.1415 93.6677 69.1259 93.6677 69.001 93.5116 69.001 93.371 69.001 93.3554 69.0478 93.3085 69.2665L92.5432 72.3278C90.4347 72.4059 88.4823 74.1708 88.4823 75.9669 88.4823 77.232 89.4038 78.2785 91.0282 78.3722 90.9189 78.7939 90.8251 79.2156 90.7158 79.6217 90.5596 80.2464 90.4347 80.7462 90.4347 80.7931 90.4347 80.918 90.5284 80.9337 90.5909 80.9337 90.6533 80.9337 90.6846 80.918 90.7158 80.8868 90.7471 80.8556 90.8251 80.5432 90.872 80.3558L91.3718 78.3722C93.5116 78.3097 95.4327 76.5136 95.4327 74.733 95.4327 73.6866 94.7298 72.4683 92.8868 72.3278ZM91.0907 78.0754C90.2941 78.0442 89.3414 77.5756 89.3414 76.2481 89.3414 74.6549 90.4815 72.7963 92.4651 72.6245ZM92.8087 72.6245C93.8083 72.687 94.5736 73.2961 94.5736 74.4519 94.5736 76.0294 93.4335 77.9193 91.4343 78.0754Z"/><path d="M0 0 0 15.9336" stroke="#000000" stroke-width="0.530452" stroke-miterlimit="10" fill="none" transform="matrix(1 0 0 -1 126.017 82.9944)"/><path d="M139.778 69.3134C139.778 69.2977 139.825 69.1415 139.825 69.1415 139.825 69.1259 139.825 69.001 139.669 69.001 139.528 69.001 139.513 69.0478 139.466 69.2665L138.7 72.3278C136.592 72.4059 134.639 74.1708 134.639 75.9669 134.639 77.232 135.561 78.2785 137.185 78.3722 137.076 78.7939 136.982 79.2156 136.873 79.6217 136.717 80.2464 136.592 80.7462 136.592 80.7931 136.592 80.918 136.686 80.9337 136.748 80.9337 136.81 80.9337 136.842 80.918 136.873 80.8868 136.904 80.8556 136.982 80.5432 137.029 80.3558L137.529 78.3722C139.669 78.3097 141.59 76.5136 141.59 74.733 141.59 73.6866 140.887 72.4683 139.044 72.3278ZM137.248 78.0754C136.451 78.0442 135.499 77.5756 135.499 76.2481 135.499 74.6549 136.639 72.7963 138.622 72.6245ZM138.966 72.6245C139.965 72.687 140.731 73.2961 140.731 74.4519 140.731 76.0294 139.591 77.9193 137.591 78.0754Z"/><path d="M0 0 0 15.9336" stroke="#000000" stroke-width="0.530452" stroke-miterlimit="10" fill="none" transform="matrix(1 0 0 -1 172.176 82.9944)"/><path d="M183.905 70.0318C183.905 69.5008 184.248 68.6417 185.685 68.548 185.763 68.5324 185.81 68.4856 185.81 68.4075 185.81 68.2513 185.701 68.2513 185.56 68.2513 184.233 68.2513 183.014 68.9385 183.014 69.9225L183.014 72.9525C183.014 73.4679 183.014 73.8896 182.483 74.327 182.015 74.7174 181.515 74.733 181.218 74.7487 181.156 74.7643 181.093 74.8111 181.093 74.8892 181.093 75.0298 181.171 75.0298 181.312 75.0454 182.187 75.0923 182.827 75.5764 182.968 76.2168 183.014 76.373 183.014 76.4042 183.014 76.8728L183.014 79.4967C183.014 80.059 183.014 80.4807 183.639 80.9961 184.17 81.3866 185.045 81.5428 185.56 81.5428 185.701 81.5428 185.81 81.5428 185.81 81.3866 185.81 81.2617 185.732 81.2617 185.592 81.246 184.764 81.1836 184.108 80.7619 183.936 80.0903 183.905 79.9653 183.905 79.9497 183.905 79.4655L183.905 76.6698C183.905 76.0606 183.795 75.842 183.374 75.4203 183.093 75.1391 182.702 74.9986 182.327 74.8892 183.421 74.5925 183.905 73.9833 183.905 73.218Z"/><path d="M192.78 72.4996C192.78 72.4371 192.749 72.359 192.655 72.359 192.499 72.359 191.968 72.89 191.749 73.2805 191.452 72.562 190.937 72.3434 190.515 72.3434 188.954 72.3434 187.314 74.3113 187.314 76.2324 187.314 77.5444 188.094 78.3566 189.063 78.3566 189.641 78.3566 190.156 78.0442 190.64 77.56 190.515 78.0286 190.078 79.8247 190.031 79.9497 189.922 80.3089 189.828 80.3714 189.078 80.387 188.907 80.387 188.782 80.387 188.782 80.6525 188.782 80.6525 188.782 80.7931 188.954 80.7931 189.375 80.7931 189.844 80.7462 190.281 80.7462 190.718 80.7462 191.203 80.7931 191.64 80.7931 191.702 80.7931 191.874 80.7931 191.874 80.5276 191.874 80.387 191.749 80.387 191.531 80.387 190.906 80.387 190.906 80.2933 190.906 80.1684 190.906 80.0746 190.921 79.9965 190.953 79.8716ZM189.11 78.0754C188.313 78.0754 188.251 77.0446 188.251 76.8259 188.251 76.1856 188.641 74.733 188.86 74.1864 189.281 73.2024 189.969 72.6401 190.515 72.6401 191.374 72.6401 191.562 73.7178 191.562 73.8115 191.562 73.8896 190.828 76.7947 190.797 76.8416 190.593 77.2164 189.844 78.0754 189.11 78.0754Z"/><path d="M195.24 77.0993C195.974 77.0993 196.49 77.5991 196.49 78.5987 196.49 79.7544 195.818 80.0981 195.287 80.0981 194.912 80.0981 194.1 79.9887 193.709 79.4421 194.147 79.4265 194.24 79.1141 194.24 78.9267 194.24 78.6299 194.022 78.4112 193.725 78.4112 193.475 78.4112 193.21 78.5674 193.21 78.9579 193.21 79.8325 194.178 80.3948 195.303 80.3948 196.599 80.3948 197.489 79.5358 197.489 78.5987 197.489 77.8802 196.896 77.1461 195.865 76.9431 196.849 76.5839 197.192 75.881 197.192 75.3187 197.192 74.5847 196.349 74.038 195.318 74.038 194.287 74.038 193.506 74.5378 193.506 75.2875 193.506 75.5999 193.709 75.7717 193.991 75.7717 194.272 75.7717 194.459 75.553 194.459 75.3031 194.459 75.0376 194.272 74.8346 193.991 74.8189 194.303 74.4129 194.943 74.3035 195.287 74.3035 195.709 74.3035 196.302 74.5066 196.302 75.3187 196.302 75.7092 196.162 76.1309 195.927 76.4277 195.615 76.7713 195.365 76.8025 194.896 76.8181 194.662 76.8494 194.647 76.8494 194.6 76.8494 194.584 76.8494 194.506 76.865 194.506 76.9743 194.506 77.0993 194.584 77.0993 194.74 77.0993Z"/><path d="M201.538 79.7623C201.538 80.2933 201.195 81.1523 199.742 81.246 199.68 81.2617 199.617 81.3085 199.617 81.3866 199.617 81.5428 199.773 81.5428 199.883 81.5428 201.179 81.5428 202.413 80.8868 202.429 79.8716L202.429 76.8416C202.429 76.3261 202.429 75.9044 202.96 75.4671 203.413 75.0767 203.928 75.061 204.209 75.0454 204.287 75.0298 204.334 74.9829 204.334 74.8892 204.334 74.7643 204.256 74.7643 204.115 74.7487 203.241 74.7018 202.6 74.2176 202.46 73.5616 202.429 73.4211 202.429 73.3898 202.429 72.9213L202.429 70.2973C202.429 69.7351 202.429 69.3134 201.788 68.7979 201.257 68.3919 200.336 68.2513 199.883 68.2513 199.773 68.2513 199.617 68.2513 199.617 68.4075 199.617 68.5324 199.695 68.5324 199.836 68.548 200.664 68.6105 201.32 69.0322 201.491 69.7038 201.538 69.8288 201.538 69.8444 201.538 70.3286L201.538 73.1243C201.538 73.7334 201.632 73.9521 202.069 74.3738 202.335 74.6549 202.725 74.7955 203.1 74.8892 202.007 75.2016 201.538 75.8107 201.538 76.576Z"/><path d="M13.9655 88.4306C13.9655 88.3682 13.9344 88.2901 13.8407 88.2901 13.6845 88.2901 13.1534 88.8211 12.9348 89.2116 12.638 88.4931 12.1226 88.2745 11.7009 88.2745 10.139 88.2745 8.49908 90.2424 8.49908 92.1635 8.49908 93.4755 9.28 94.2877 10.2484 94.2877 10.8263 94.2877 11.3417 93.9753 11.8259 93.4911 11.701 93.9597 11.2636 95.7558 11.2167 95.8808 11.1074 96.24 11.0137 96.3025 10.264 96.3181 10.0922 96.3181 9.96724 96.3181 9.96724 96.5836 9.96724 96.5836 9.96724 96.7242 10.139 96.7242 10.5607 96.7242 11.0293 96.6773 11.4666 96.6773 11.9039 96.6773 12.3881 96.7242 12.8255 96.7242 12.888 96.7242 13.0597 96.7242 13.0597 96.4586 13.0597 96.3181 12.9348 96.3181 12.7161 96.3181 12.0914 96.3181 12.0914 96.2244 12.0914 96.0994 12.0914 96.0057 12.107 95.9276 12.1383 95.8027ZM10.2952 94.0065C9.49861 94.0065 9.43613 92.9757 9.43613 92.757 9.43613 92.1167 9.8266 90.6641 10.0453 90.1175 10.467 89.1335 11.1542 88.5712 11.7008 88.5712 12.5599 88.5712 12.7473 89.6489 12.7473 89.7426 12.7473 89.8207 12.0132 92.7258 11.982 92.7726 11.7789 93.1475 11.0292 94.0065 10.2952 94.0065Z"/><path d="M18.8152 94.6078 18.8152 94.2798 17.7843 94.2798 17.7843 90.1409C17.7843 89.9378 17.7843 89.8754 17.5813 89.8754 17.4564 89.8754 17.4251 89.8754 17.3314 90.0003L14.2545 94.2798 14.2545 94.6078 16.9878 94.6078 16.9878 95.3731C16.9878 95.6855 16.9878 95.8105 16.2381 95.8105L15.9882 95.8105 15.9882 96.1385C16.4567 96.1228 17.0502 96.1072 17.3783 96.1072 17.7218 96.1072 18.3154 96.1228 18.7839 96.1385L18.7839 95.8105 18.534 95.8105C17.7843 95.8105 17.7843 95.6855 17.7843 95.3731L17.7843 94.6078ZM17.0502 90.875 17.0502 94.2798 14.5981 94.2798Z"/><path d="M0 0 0 15.9336" stroke="#000000" stroke-width="0.530452" stroke-miterlimit="10" fill="none" transform="matrix(1 0 0 -1 31.0461 98.9279)"/><path d="M0 0 0 15.9336" stroke="#000000" stroke-width="0.530452" stroke-miterlimit="10" fill="none" transform="matrix(1 0 0 -1 33.701 98.9279)"/><path d="M47.4637 85.2444C47.4637 85.2288 47.5106 85.0726 47.5106 85.0726 47.5106 85.057 47.5106 84.9321 47.3544 84.9321 47.2138 84.9321 47.1982 84.9789 47.1514 85.1976L46.3861 88.2588C44.2775 88.3369 42.3252 90.1018 42.3252 91.898 42.3252 93.1631 43.2467 94.2096 44.871 94.3033 44.7617 94.725 44.668 95.1467 44.5587 95.5528 44.4025 96.1775 44.2775 96.6773 44.2775 96.7242 44.2775 96.8491 44.3712 96.8647 44.4337 96.8647 44.4962 96.8647 44.5274 96.8491 44.5587 96.8179 44.5899 96.7866 44.668 96.4743 44.7149 96.2868L45.2147 94.3033C47.3544 94.2408 49.2755 92.4446 49.2755 90.6641 49.2755 89.6177 48.5727 88.3994 46.7297 88.2588ZM44.9335 94.0065C44.137 93.9753 43.1842 93.5067 43.1842 92.1791 43.1842 90.586 44.3244 88.7274 46.308 88.5556ZM46.6516 88.5556C47.6512 88.6181 48.4165 89.2272 48.4165 90.383 48.4165 91.9605 47.2763 93.8503 45.2771 94.0065Z"/><path d="M0 0 0 15.9336" stroke="#000000" stroke-width="0.530452" stroke-miterlimit="10" fill="none" transform="matrix(1 0 0 -1 79.8597 98.9279)"/><path d="M93.6209 85.2444C93.6209 85.2288 93.6677 85.0726 93.6677 85.0726 93.6677 85.057 93.6677 84.9321 93.5116 84.9321 93.371 84.9321 93.3554 84.9789 93.3085 85.1976L92.5432 88.2588C90.4347 88.3369 88.4823 90.1018 88.4823 91.898 88.4823 93.1631 89.4038 94.2096 91.0282 94.3033 90.9189 94.725 90.8251 95.1467 90.7158 95.5528 90.5596 96.1775 90.4347 96.6773 90.4347 96.7242 90.4347 96.8491 90.5284 96.8647 90.5909 96.8647 90.6533 96.8647 90.6846 96.8491 90.7158 96.8179 90.7471 96.7866 90.8251 96.4743 90.872 96.2868L91.3718 94.3033C93.5116 94.2408 95.4327 92.4446 95.4327 90.6641 95.4327 89.6177 94.7298 88.3994 92.8868 88.2588ZM91.0907 94.0065C90.2941 93.9753 89.3414 93.5067 89.3414 92.1791 89.3414 90.586 90.4815 88.7274 92.4651 88.5556ZM92.8087 88.5556C93.8083 88.6181 94.5736 89.2272 94.5736 90.383 94.5736 91.9605 93.4335 93.8503 91.4343 94.0065Z"/><path d="M0 0 0 15.9336" stroke="#000000" stroke-width="0.530452" stroke-miterlimit="10" fill="none" transform="matrix(1 0 0 -1 126.017 98.9279)"/><path d="M137.748 85.9629C137.748 85.4318 138.091 84.5728 139.528 84.4791 139.606 84.4635 139.653 84.4166 139.653 84.3385 139.653 84.1824 139.544 84.1824 139.403 84.1824 138.076 84.1824 136.857 84.8696 136.857 85.8536L136.857 88.8836C136.857 89.399 136.857 89.8207 136.326 90.258 135.858 90.6485 135.358 90.6641 135.061 90.6797 134.999 90.6954 134.936 90.7422 134.936 90.8203 134.936 90.9609 135.014 90.9609 135.155 90.9765 136.03 91.0233 136.67 91.5075 136.81 92.1479 136.857 92.3041 136.857 92.3353 136.857 92.8039L136.857 95.4278C136.857 95.9901 136.857 96.4118 137.482 96.9272 138.013 97.3177 138.888 97.4739 139.403 97.4739 139.544 97.4739 139.653 97.4739 139.653 97.3177 139.653 97.1927 139.575 97.1927 139.434 97.1771 138.607 97.1146 137.951 96.6929 137.779 96.0213 137.748 95.8964 137.748 95.8808 137.748 95.3966L137.748 92.6008C137.748 91.9917 137.638 91.773 137.217 91.3513 136.935 91.0702 136.545 90.9296 136.17 90.8203 137.263 90.5235 137.748 89.9144 137.748 89.1491Z"/><path d="M146.619 88.4306C146.619 88.3682 146.588 88.2901 146.494 88.2901 146.338 88.2901 145.807 88.8211 145.588 89.2116 145.291 88.4931 144.776 88.2745 144.354 88.2745 142.792 88.2745 141.152 90.2424 141.152 92.1635 141.152 93.4755 141.933 94.2877 142.902 94.2877 143.48 94.2877 143.995 93.9753 144.479 93.4911 144.354 93.9597 143.917 95.7558 143.87 95.8808 143.761 96.24 143.667 96.3025 142.917 96.3181 142.746 96.3181 142.621 96.3181 142.621 96.5836 142.621 96.5836 142.621 96.7242 142.792 96.7242 143.214 96.7242 143.683 96.6773 144.12 96.6773 144.557 96.6773 145.042 96.7242 145.479 96.7242 145.541 96.7242 145.713 96.7242 145.713 96.4586 145.713 96.3181 145.588 96.3181 145.37 96.3181 144.745 96.3181 144.745 96.2244 144.745 96.0994 144.745 96.0057 144.76 95.9276 144.792 95.8027ZM142.949 94.0065C142.152 94.0065 142.09 92.9757 142.09 92.757 142.09 92.1167 142.48 90.6641 142.699 90.1175 143.12 89.1335 143.808 88.5712 144.354 88.5712 145.213 88.5712 145.401 89.6489 145.401 89.7426 145.401 89.8207 144.667 92.7258 144.635 92.7726 144.432 93.1475 143.683 94.0065 142.949 94.0065Z"/><path d="M149.083 93.0303C149.817 93.0303 150.332 93.5301 150.332 94.5297 150.332 95.6855 149.661 96.0291 149.13 96.0291 148.755 96.0291 147.943 95.9198 147.552 95.3731 147.99 95.3575 148.083 95.0452 148.083 94.8577 148.083 94.561 147.865 94.3423 147.568 94.3423 147.318 94.3423 147.052 94.4985 147.052 94.889 147.052 95.7636 148.021 96.3259 149.145 96.3259 150.442 96.3259 151.332 95.4669 151.332 94.5297 151.332 93.8113 150.738 93.0772 149.708 92.8742 150.692 92.5149 151.035 91.8121 151.035 91.2498 151.035 90.5157 150.192 89.9691 149.161 89.9691 148.13 89.9691 147.349 90.4689 147.349 91.2186 147.349 91.531 147.552 91.7028 147.833 91.7028 148.115 91.7028 148.302 91.4841 148.302 91.2342 148.302 90.9687 148.115 90.7656 147.833 90.75 148.146 90.3439 148.786 90.2346 149.13 90.2346 149.551 90.2346 150.145 90.4376 150.145 91.2498 150.145 91.6403 150.004 92.062 149.77 92.3587 149.458 92.7024 149.208 92.7336 148.739 92.7492 148.505 92.7804 148.489 92.7804 148.443 92.7804 148.427 92.7804 148.349 92.7961 148.349 92.9054 148.349 93.0303 148.427 93.0303 148.583 93.0303Z"/><path d="M155.381 95.6933C155.381 96.2244 155.038 97.0834 153.585 97.1771 153.523 97.1927 153.46 97.2396 153.46 97.3177 153.46 97.4739 153.616 97.4739 153.726 97.4739 155.022 97.4739 156.256 96.8179 156.271 95.8027L156.271 92.7726C156.271 92.2572 156.271 91.8355 156.802 91.3982 157.255 91.0077 157.771 90.9921 158.052 90.9765 158.13 90.9609 158.177 90.914 158.177 90.8203 158.177 90.6954 158.099 90.6954 157.958 90.6797 157.084 90.6329 156.443 90.1487 156.303 89.4927 156.271 89.3521 156.271 89.3209 156.271 88.8523L156.271 86.2284C156.271 85.6661 156.271 85.2444 155.631 84.729 155.1 84.3229 154.178 84.1824 153.726 84.1824 153.616 84.1824 153.46 84.1824 153.46 84.3385 153.46 84.4635 153.538 84.4635 153.679 84.4791 154.506 84.5416 155.162 84.9633 155.334 85.6349 155.381 85.7598 155.381 85.7755 155.381 86.2596L155.381 89.0554C155.381 89.6645 155.475 89.8832 155.912 90.3049 156.178 90.586 156.568 90.7266 156.943 90.8203 155.85 91.1327 155.381 91.7418 155.381 92.5071Z"/><path d="M0 0 0 15.9336" stroke="#000000" stroke-width="0.530452" stroke-miterlimit="10" fill="none" transform="matrix(1 0 0 -1 172.176 98.9279)"/><path d="M185.935 85.2444C185.935 85.2288 185.982 85.0726 185.982 85.0726 185.982 85.057 185.982 84.9321 185.826 84.9321 185.685 84.9321 185.67 84.9789 185.623 85.1976L184.857 88.2588C182.749 88.3369 180.797 90.1018 180.797 91.898 180.797 93.1631 181.718 94.2096 183.342 94.3033 183.233 94.725 183.139 95.1467 183.03 95.5528 182.874 96.1775 182.749 96.6773 182.749 96.7242 182.749 96.8491 182.843 96.8647 182.905 96.8647 182.968 96.8647 182.999 96.8491 183.03 96.8179 183.061 96.7866 183.139 96.4743 183.186 96.2868L183.686 94.3033C185.826 94.2408 187.747 92.4446 187.747 90.6641 187.747 89.6177 187.044 88.3994 185.201 88.2588ZM183.405 94.0065C182.608 93.9753 181.656 93.5067 181.656 92.1791 181.656 90.586 182.796 88.7274 184.779 88.5556ZM185.123 88.5556C186.123 88.6181 186.888 89.2272 186.888 90.383 186.888 91.9605 185.748 93.8503 183.749 94.0065ZM13.9655 104.366C13.9655 104.303 13.9344 104.225 13.8407 104.225 13.6845 104.225 13.1534 104.756 12.9348 105.147 12.638 104.428 12.1226 104.209 11.7009 104.209 10.139 104.209 8.49908 106.177 8.49908 108.098 8.49908 109.41 9.28 110.223 10.2484 110.223 10.8263 110.223 11.3417 109.91 11.8259 109.426 11.701 109.895 11.2636 111.691 11.2167 111.816 11.1074 112.175 11.0137 112.237 10.264 112.253 10.0922 112.253 9.96724 112.253 9.96724 112.519 9.96724 112.519 9.96724 112.659 10.139 112.659 10.5607 112.659 11.0293 112.612 11.4666 112.612 11.9039 112.612 12.3881 112.659 12.8255 112.659 12.888 112.659 13.0597 112.659 13.0597 112.394 13.0597 112.253 12.9348 112.253 12.7161 112.253 12.0914 112.253 12.0914 112.159 12.0914 112.034 12.0914 111.941 12.107 111.863 12.1383 111.738ZM10.2952 109.941C9.49861 109.941 9.43613 108.911 9.43613 108.692 9.43613 108.052 9.8266 106.599 10.0453 106.052 10.467 105.068 11.1542 104.506 11.7008 104.506 12.5599 104.506 12.7473 105.584 12.7473 105.678 12.7473 105.756 12.0132 108.661 11.982 108.708 11.7789 109.082 11.0292 109.941 10.2952 109.941Z"/><path d="M15.3322 106.888C15.8164 107.013 16.0819 107.013 16.2381 107.013 17.4563 107.013 18.1904 106.17 18.1904 106.029 18.1904 105.935 18.1279 105.904 18.0811 105.904 18.0655 105.904 18.0342 105.904 18.003 105.935 17.7843 106.013 17.2845 106.201 16.5973 106.201 16.3318 106.201 15.8476 106.185 15.2385 105.951 15.1448 105.904 15.1292 105.904 15.1292 105.904 15.0043 105.904 15.0043 105.998 15.0043 106.154L15.0043 108.903C15.0043 109.059 15.0043 109.168 15.1449 109.168 15.2386 109.168 15.2386 109.153 15.3323 109.028 15.7384 108.528 16.3007 108.45 16.6287 108.45 17.1909 108.45 17.4408 108.903 17.4877 108.965 17.6439 109.278 17.7064 109.637 17.7064 110.168 17.7064 110.449 17.7064 110.996 17.4252 111.402 17.1909 111.745 16.8005 111.964 16.3319 111.964 15.7384 111.964 15.1137 111.62 14.8794 111.011 15.2386 111.043 15.4104 110.808 15.4104 110.558 15.4104 110.152 15.0668 110.09 14.9418 110.09 14.9263 110.09 14.4733 110.09 14.4733 110.59 14.4733 111.417 15.2386 112.261 16.3632 112.261 17.5502 112.261 18.581 111.371 18.581 110.199 18.581 109.153 17.7845 108.184 16.6443 108.184 16.2226 108.184 15.7384 108.294 15.3323 108.637Z"/><path d="M0 0 0 15.9336" stroke="#000000" stroke-width="0.530452" stroke-miterlimit="10" fill="none" transform="matrix(1 0 0 -1 31.0461 114.861)"/><path d="M0 0 0 15.9336" stroke="#000000" stroke-width="0.530452" stroke-miterlimit="10" fill="none" transform="matrix(1 0 0 -1 33.701 114.861)"/><path d="M47.4637 101.179C47.4637 101.164 47.5106 101.008 47.5106 101.008 47.5106 100.992 47.5106 100.867 47.3544 100.867 47.2138 100.867 47.1982 100.914 47.1514 101.133L46.3861 104.194C44.2775 104.272 42.3252 106.037 42.3252 107.833 42.3252 109.098 43.2467 110.145 44.871 110.238 44.7617 110.66 44.668 111.082 44.5587 111.488 44.4025 112.112 44.2775 112.612 44.2775 112.659 44.2775 112.784 44.3712 112.8 44.4337 112.8 44.4962 112.8 44.5274 112.784 44.5587 112.753 44.5899 112.722 44.668 112.409 44.7149 112.222L45.2147 110.238C47.3544 110.176 49.2755 108.38 49.2755 106.599 49.2755 105.553 48.5727 104.334 46.7297 104.194ZM44.9335 109.941C44.137 109.91 43.1842 109.442 43.1842 108.114 43.1842 106.521 44.3244 104.662 46.308 104.491ZM46.6516 104.491C47.6512 104.553 48.4165 105.162 48.4165 106.318 48.4165 107.895 47.2763 109.785 45.2771 109.941Z"/><path d="M0 0 0 15.9336" stroke="#000000" stroke-width="0.530452" stroke-miterlimit="10" fill="none" transform="matrix(1 0 0 -1 79.8597 114.861)"/><path d="M93.6209 101.179C93.6209 101.164 93.6677 101.008 93.6677 101.008 93.6677 100.992 93.6677 100.867 93.5116 100.867 93.371 100.867 93.3554 100.914 93.3085 101.133L92.5432 104.194C90.4347 104.272 88.4823 106.037 88.4823 107.833 88.4823 109.098 89.4038 110.145 91.0282 110.238 90.9189 110.66 90.8251 111.082 90.7158 111.488 90.5596 112.112 90.4347 112.612 90.4347 112.659 90.4347 112.784 90.5284 112.8 90.5909 112.8 90.6533 112.8 90.6846 112.784 90.7158 112.753 90.7471 112.722 90.8251 112.409 90.872 112.222L91.3718 110.238C93.5116 110.176 95.4327 108.38 95.4327 106.599 95.4327 105.553 94.7298 104.334 92.8868 104.194ZM91.0907 109.941C90.2941 109.91 89.3414 109.442 89.3414 108.114 89.3414 106.521 90.4815 104.662 92.4651 104.491ZM92.8087 104.491C93.8083 104.553 94.5736 105.162 94.5736 106.318 94.5736 107.895 93.4335 109.785 91.4343 109.941Z"/><path d="M0 0 0 15.9336" stroke="#000000" stroke-width="0.530452" stroke-miterlimit="10" fill="none" transform="matrix(1 0 0 -1 126.017 114.861)"/><path d="M139.778 101.179C139.778 101.164 139.825 101.008 139.825 101.008 139.825 100.992 139.825 100.867 139.669 100.867 139.528 100.867 139.513 100.914 139.466 101.133L138.7 104.194C136.592 104.272 134.639 106.037 134.639 107.833 134.639 109.098 135.561 110.145 137.185 110.238 137.076 110.66 136.982 111.082 136.873 111.488 136.717 112.112 136.592 112.612 136.592 112.659 136.592 112.784 136.686 112.8 136.748 112.8 136.81 112.8 136.842 112.784 136.873 112.753 136.904 112.722 136.982 112.409 137.029 112.222L137.529 110.238C139.669 110.176 141.59 108.38 141.59 106.599 141.59 105.553 140.887 104.334 139.044 104.194ZM137.248 109.941C136.451 109.91 135.499 109.442 135.499 108.114 135.499 106.521 136.639 104.662 138.622 104.491ZM138.966 104.491C139.965 104.553 140.731 105.162 140.731 106.318 140.731 107.895 139.591 109.785 137.591 109.941Z"/><path d="M0 0 0 15.9336" stroke="#000000" stroke-width="0.530452" stroke-miterlimit="10" fill="none" transform="matrix(1 0 0 -1 172.176 114.861)"/><path d="M185.935 101.179C185.935 101.164 185.982 101.008 185.982 101.008 185.982 100.992 185.982 100.867 185.826 100.867 185.685 100.867 185.67 100.914 185.623 101.133L184.857 104.194C182.749 104.272 180.797 106.037 180.797 107.833 180.797 109.098 181.718 110.145 183.342 110.238 183.233 110.66 183.139 111.082 183.03 111.488 182.874 112.112 182.749 112.612 182.749 112.659 182.749 112.784 182.843 112.8 182.905 112.8 182.968 112.8 182.999 112.784 183.03 112.753 183.061 112.722 183.139 112.409 183.186 112.222L183.686 110.238C185.826 110.176 187.747 108.38 187.747 106.599 187.747 105.553 187.044 104.334 185.201 104.194ZM183.405 109.941C182.608 109.91 181.656 109.442 181.656 108.114 181.656 106.521 182.796 104.662 184.779 104.491ZM185.123 104.491C186.123 104.553 186.888 105.162 186.888 106.318 186.888 107.895 185.748 109.785 183.749 109.941Z"/><path d="M209.715 761.776C209.715 761.464 209.715 761.432 209.402 761.432 208.59 762.276 207.419 762.276 206.997 762.276L206.997 762.698C207.263 762.698 208.043 762.698 208.731 762.354L208.731 769.226C208.731 769.695 208.684 769.867 207.497 769.867L207.075 769.867 207.075 770.273C207.544 770.226 208.684 770.226 209.215 770.226 209.746 770.226 210.902 770.226 211.37 770.273L211.37 769.867 210.949 769.867C209.746 769.867 209.715 769.71 209.715 769.226Z"/></g></svg>